<svg width="1719" height="1715" viewBox="0 0 1719 1715" fill="none" xmlns="http://www.w3.org/2000/svg">
<g clip-path="url(#clip0_234_2846)">
<rect width="1728" height="1715" fill="#020103"/>
<g filter="url(#filter0_f_234_2846)">
<rect x="-387.5" y="243" width="641" height="287" fill="#504CFF" fill-opacity="0.6"/>
</g>
<g filter="url(#filter1_f_234_2846)">
<rect x="998.5" y="787" width="641" height="287" fill="#854CFF" fill-opacity="0.6"/>
</g>
<rect x="932.5" y="1652.5" width="19" height="19" rx="9.5" stroke="black"/>
<path d="M946.021 1664.77L945.798 1659.11C945.792 1659 945.764 1658.9 945.718 1658.8C945.629 1658.6 945.468 1658.44 945.27 1658.35C945.172 1658.31 945.067 1658.28 944.962 1658.27L939.297 1658.05C939.192 1658.04 939.088 1658.06 938.992 1658.1C938.896 1658.13 938.81 1658.19 938.738 1658.26C938.593 1658.41 938.516 1658.61 938.525 1658.82C938.533 1659.03 938.626 1659.24 938.783 1659.4C938.939 1659.56 939.147 1659.65 939.361 1659.66L943.093 1659.8L938.419 1664.47C938.275 1664.62 938.199 1664.82 938.207 1665.03C938.215 1665.24 938.308 1665.45 938.464 1665.61C938.62 1665.76 938.827 1665.85 939.04 1665.86C939.252 1665.87 939.453 1665.8 939.597 1665.65L944.271 1660.98L944.412 1664.71C944.416 1664.82 944.441 1664.92 944.485 1665.02C944.529 1665.12 944.592 1665.21 944.669 1665.29C944.747 1665.37 944.838 1665.43 944.938 1665.47C945.037 1665.52 945.143 1665.54 945.248 1665.55C945.354 1665.55 945.458 1665.53 945.554 1665.5C945.651 1665.46 945.737 1665.41 945.809 1665.33C945.881 1665.26 945.937 1665.17 945.973 1665.08C946.009 1664.98 946.026 1664.88 946.021 1664.77Z" fill="#16121E"/>
<rect x="811" y="1672" width="131" height="47" rx="23.5" fill="white"/>
<path d="M840.945 1701.16C839.878 1701.16 838.938 1700.91 838.125 1700.43C837.318 1699.95 836.688 1699.26 836.234 1698.37C835.781 1697.48 835.555 1696.42 835.555 1695.2C835.555 1693.95 835.786 1692.87 836.25 1691.98C836.719 1691.08 837.354 1690.4 838.156 1689.92C838.958 1689.44 839.867 1689.2 840.883 1689.2C841.529 1689.2 842.128 1689.3 842.68 1689.48C843.237 1689.67 843.732 1689.94 844.164 1690.29C844.596 1690.63 844.951 1691.04 845.227 1691.52C845.508 1691.99 845.695 1692.51 845.789 1693.08H843.641C843.547 1692.77 843.417 1692.49 843.25 1692.25C843.089 1692.01 842.891 1691.8 842.656 1691.62C842.427 1691.45 842.167 1691.32 841.875 1691.23C841.583 1691.14 841.26 1691.09 840.906 1691.09C840.286 1691.09 839.732 1691.25 839.242 1691.57C838.753 1691.88 838.367 1692.34 838.086 1692.95C837.81 1693.56 837.672 1694.3 837.672 1695.17C837.672 1696.05 837.81 1696.8 838.086 1697.41C838.362 1698.02 838.747 1698.48 839.242 1698.8C839.737 1699.11 840.31 1699.27 840.961 1699.27C841.549 1699.27 842.06 1699.15 842.492 1698.93C842.924 1698.7 843.258 1698.38 843.492 1697.96C843.727 1697.54 843.844 1697.05 843.844 1696.48L844.328 1696.56H841.164V1694.91H845.891V1696.3C845.891 1697.3 845.68 1698.17 845.258 1698.89C844.836 1699.61 844.25 1700.17 843.5 1700.57C842.755 1700.96 841.904 1701.16 840.945 1701.16ZM851.109 1701.17C850.234 1701.17 849.479 1700.99 848.844 1700.62C848.208 1700.26 847.719 1699.73 847.375 1699.06C847.036 1698.39 846.867 1697.6 846.867 1696.69C846.867 1695.79 847.036 1695 847.375 1694.32C847.714 1693.64 848.19 1693.11 848.805 1692.73C849.419 1692.35 850.143 1692.16 850.977 1692.16C851.513 1692.16 852.021 1692.24 852.5 1692.41C852.984 1692.59 853.411 1692.85 853.781 1693.21C854.156 1693.57 854.451 1694.03 854.664 1694.59C854.878 1695.14 854.984 1695.8 854.984 1696.56V1697.2H847.828V1695.82H853.961L853 1696.23C853 1695.73 852.924 1695.3 852.773 1694.94C852.622 1694.57 852.398 1694.28 852.102 1694.07C851.805 1693.86 851.435 1693.76 850.992 1693.76C850.549 1693.76 850.172 1693.86 849.859 1694.07C849.547 1694.28 849.31 1694.56 849.148 1694.91C848.987 1695.26 848.906 1695.65 848.906 1696.09V1697.05C848.906 1697.58 848.997 1698.03 849.18 1698.41C849.367 1698.79 849.628 1699.08 849.961 1699.27C850.299 1699.47 850.693 1699.57 851.141 1699.57C851.432 1699.57 851.698 1699.53 851.938 1699.45C852.182 1699.36 852.391 1699.24 852.562 1699.07C852.74 1698.9 852.875 1698.69 852.969 1698.44L854.891 1698.66C854.766 1699.17 854.534 1699.61 854.195 1699.99C853.862 1700.37 853.432 1700.66 852.906 1700.87C852.385 1701.07 851.786 1701.17 851.109 1701.17ZM860.453 1692.27V1693.86H855.445V1692.27H860.453ZM856.672 1690.19H858.727V1698.38C858.727 1698.72 858.802 1698.97 858.953 1699.14C859.104 1699.3 859.344 1699.38 859.672 1699.38C859.76 1699.38 859.859 1699.38 859.969 1699.36C860.078 1699.34 860.177 1699.33 860.266 1699.3L860.617 1700.91C860.398 1700.98 860.177 1701.03 859.953 1701.06C859.729 1701.1 859.505 1701.12 859.281 1701.12C858.469 1701.12 857.831 1700.9 857.367 1700.48C856.904 1700.04 856.672 1699.46 856.672 1698.71V1690.19ZM869.156 1701.18C868.25 1701.18 867.464 1701.04 866.797 1700.76C866.13 1700.48 865.609 1700.07 865.234 1699.53C864.859 1698.99 864.656 1698.33 864.625 1697.56H866.703C866.734 1697.97 866.859 1698.31 867.078 1698.58C867.297 1698.84 867.583 1699.04 867.938 1699.18C868.297 1699.32 868.695 1699.38 869.133 1699.38C869.591 1699.38 869.995 1699.31 870.344 1699.17C870.693 1699.03 870.966 1698.84 871.164 1698.59C871.362 1698.34 871.461 1698.04 871.461 1697.71C871.461 1697.41 871.372 1697.16 871.195 1696.97C871.018 1696.77 870.773 1696.6 870.461 1696.47C870.148 1696.33 869.781 1696.21 869.359 1696.11L868.039 1695.77C867.081 1695.52 866.326 1695.15 865.773 1694.65C865.221 1694.14 864.945 1693.47 864.945 1692.63C864.945 1691.95 865.13 1691.35 865.5 1690.84C865.87 1690.32 866.375 1689.92 867.016 1689.63C867.661 1689.35 868.391 1689.2 869.203 1689.2C870.031 1689.2 870.758 1689.35 871.383 1689.63C872.008 1689.92 872.497 1690.32 872.852 1690.82C873.206 1691.33 873.391 1691.91 873.406 1692.56H871.367C871.315 1692.06 871.094 1691.68 870.703 1691.41C870.318 1691.13 869.81 1690.99 869.18 1690.99C868.742 1690.99 868.365 1691.06 868.047 1691.19C867.734 1691.32 867.495 1691.5 867.328 1691.73C867.161 1691.96 867.078 1692.22 867.078 1692.51C867.078 1692.83 867.174 1693.1 867.367 1693.3C867.565 1693.51 867.815 1693.67 868.117 1693.8C868.424 1693.92 868.737 1694.03 869.055 1694.11L870.141 1694.38C870.578 1694.49 871 1694.63 871.406 1694.8C871.812 1694.98 872.177 1695.2 872.5 1695.46C872.828 1695.72 873.086 1696.04 873.273 1696.41C873.466 1696.79 873.562 1697.23 873.562 1697.73C873.562 1698.41 873.388 1699.01 873.039 1699.53C872.69 1700.05 872.188 1700.45 871.531 1700.74C870.875 1701.03 870.083 1701.18 869.156 1701.18ZM879.094 1692.27V1693.86H874.086V1692.27H879.094ZM875.312 1690.19H877.367V1698.38C877.367 1698.72 877.443 1698.97 877.594 1699.14C877.745 1699.3 877.984 1699.38 878.312 1699.38C878.401 1699.38 878.5 1699.38 878.609 1699.36C878.719 1699.34 878.818 1699.33 878.906 1699.3L879.258 1700.91C879.039 1700.98 878.818 1701.03 878.594 1701.06C878.37 1701.1 878.146 1701.12 877.922 1701.12C877.109 1701.12 876.471 1700.9 876.008 1700.48C875.544 1700.04 875.312 1699.46 875.312 1698.71V1690.19ZM882.742 1701.18C882.185 1701.18 881.685 1701.08 881.242 1700.88C880.799 1700.68 880.451 1700.38 880.195 1699.99C879.94 1699.6 879.812 1699.12 879.812 1698.55C879.812 1698.06 879.904 1697.65 880.086 1697.33C880.268 1697.01 880.516 1696.75 880.828 1696.55C881.146 1696.36 881.503 1696.22 881.898 1696.12C882.294 1696.01 882.703 1695.94 883.125 1695.9C883.641 1695.84 884.057 1695.79 884.375 1695.75C884.693 1695.71 884.922 1695.64 885.062 1695.55C885.208 1695.45 885.281 1695.31 885.281 1695.11V1695.07C885.281 1694.65 885.156 1694.32 884.906 1694.09C884.656 1693.85 884.292 1693.73 883.812 1693.73C883.307 1693.73 882.906 1693.84 882.609 1694.06C882.318 1694.28 882.12 1694.54 882.016 1694.84L880.102 1694.56C880.253 1694.03 880.503 1693.59 880.852 1693.23C881.201 1692.88 881.625 1692.61 882.125 1692.43C882.63 1692.25 883.188 1692.16 883.797 1692.16C884.214 1692.16 884.63 1692.21 885.047 1692.3C885.464 1692.4 885.846 1692.56 886.195 1692.79C886.544 1693.02 886.823 1693.33 887.031 1693.71C887.24 1694.1 887.344 1694.58 887.344 1695.16V1701H885.367V1699.8H885.305C885.18 1700.04 885.003 1700.26 884.773 1700.48C884.549 1700.68 884.268 1700.85 883.93 1700.98C883.596 1701.11 883.201 1701.18 882.742 1701.18ZM883.266 1699.66C883.682 1699.66 884.042 1699.58 884.344 1699.42C884.646 1699.26 884.88 1699.04 885.047 1698.77C885.214 1698.49 885.297 1698.19 885.297 1697.87V1696.84C885.229 1696.9 885.12 1696.95 884.969 1696.99C884.818 1697.03 884.646 1697.07 884.453 1697.11C884.26 1697.15 884.07 1697.18 883.883 1697.2C883.701 1697.23 883.542 1697.25 883.406 1697.27C883.099 1697.31 882.823 1697.38 882.578 1697.48C882.339 1697.57 882.148 1697.7 882.008 1697.87C881.867 1698.03 881.797 1698.25 881.797 1698.52C881.797 1698.9 881.935 1699.18 882.211 1699.38C882.487 1699.57 882.839 1699.66 883.266 1699.66ZM888.867 1701V1692.27H890.859V1693.73H890.953C891.109 1693.22 891.383 1692.83 891.773 1692.56C892.164 1692.29 892.609 1692.15 893.109 1692.15C893.219 1692.15 893.344 1692.15 893.484 1692.16C893.63 1692.17 893.75 1692.19 893.844 1692.2V1694.09C893.755 1694.06 893.617 1694.04 893.43 1694.02C893.242 1693.99 893.062 1693.98 892.891 1693.98C892.51 1693.98 892.172 1694.07 891.875 1694.23C891.578 1694.39 891.344 1694.61 891.172 1694.89C891.005 1695.17 890.922 1695.5 890.922 1695.88V1701H888.867ZM899.438 1692.27V1693.86H894.43V1692.27H899.438ZM895.656 1690.19H897.711V1698.38C897.711 1698.72 897.786 1698.97 897.938 1699.14C898.089 1699.3 898.328 1699.38 898.656 1699.38C898.745 1699.38 898.844 1699.38 898.953 1699.36C899.062 1699.34 899.161 1699.33 899.25 1699.3L899.602 1700.91C899.383 1700.98 899.161 1701.03 898.938 1701.06C898.714 1701.1 898.49 1701.12 898.266 1701.12C897.453 1701.12 896.815 1700.9 896.352 1700.48C895.888 1700.04 895.656 1699.46 895.656 1698.71V1690.19ZM904.344 1701.17C903.469 1701.17 902.714 1700.99 902.078 1700.62C901.443 1700.26 900.953 1699.73 900.609 1699.06C900.271 1698.39 900.102 1697.6 900.102 1696.69C900.102 1695.79 900.271 1695 900.609 1694.32C900.948 1693.64 901.424 1693.11 902.039 1692.73C902.654 1692.35 903.378 1692.16 904.211 1692.16C904.747 1692.16 905.255 1692.24 905.734 1692.41C906.219 1692.59 906.646 1692.85 907.016 1693.21C907.391 1693.57 907.685 1694.03 907.898 1694.59C908.112 1695.14 908.219 1695.8 908.219 1696.56V1697.2H901.062V1695.82H907.195L906.234 1696.23C906.234 1695.73 906.159 1695.3 906.008 1694.94C905.857 1694.57 905.633 1694.28 905.336 1694.07C905.039 1693.86 904.669 1693.76 904.227 1693.76C903.784 1693.76 903.406 1693.86 903.094 1694.07C902.781 1694.28 902.544 1694.56 902.383 1694.91C902.221 1695.26 902.141 1695.65 902.141 1696.09V1697.05C902.141 1697.58 902.232 1698.03 902.414 1698.41C902.602 1698.79 902.862 1699.08 903.195 1699.27C903.534 1699.47 903.927 1699.57 904.375 1699.57C904.667 1699.57 904.932 1699.53 905.172 1699.45C905.417 1699.36 905.625 1699.24 905.797 1699.07C905.974 1698.9 906.109 1698.69 906.203 1698.44L908.125 1698.66C908 1699.17 907.768 1699.61 907.43 1699.99C907.096 1700.37 906.667 1700.66 906.141 1700.87C905.62 1701.07 905.021 1701.17 904.344 1701.17ZM912.555 1701.16C911.872 1701.16 911.258 1700.98 910.711 1700.63C910.169 1700.28 909.742 1699.77 909.43 1699.09C909.117 1698.42 908.961 1697.61 908.961 1696.65C908.961 1695.67 909.12 1694.85 909.438 1694.19C909.76 1693.52 910.193 1693.02 910.734 1692.67C911.276 1692.33 911.883 1692.16 912.555 1692.16C913.07 1692.16 913.492 1692.24 913.82 1692.41C914.148 1692.59 914.409 1692.79 914.602 1693.04C914.799 1693.28 914.951 1693.5 915.055 1693.71H915.141V1689.36H917.188V1701H915.18V1699.62H915.055C914.945 1699.83 914.792 1700.06 914.594 1700.3C914.396 1700.53 914.133 1700.73 913.805 1700.91C913.477 1701.07 913.06 1701.16 912.555 1701.16ZM913.125 1699.47C913.562 1699.47 913.932 1699.35 914.234 1699.12C914.542 1698.88 914.776 1698.55 914.938 1698.12C915.099 1697.7 915.18 1697.2 915.18 1696.64C915.18 1696.07 915.099 1695.58 914.938 1695.16C914.781 1694.74 914.549 1694.42 914.242 1694.19C913.94 1693.96 913.568 1693.84 913.125 1693.84C912.672 1693.84 912.292 1693.96 911.984 1694.2C911.677 1694.44 911.445 1694.77 911.289 1695.2C911.138 1695.62 911.062 1696.1 911.062 1696.64C911.062 1697.18 911.141 1697.67 911.297 1698.09C911.453 1698.52 911.682 1698.86 911.984 1699.1C912.292 1699.35 912.672 1699.47 913.125 1699.47Z" fill="#16121E"/>
</g>
<defs>
<filter id="filter0_f_234_2846" x="-687.5" y="-57" width="1241" height="887" filterUnits="userSpaceOnUse" color-interpolation-filters="sRGB">
<feFlood flood-opacity="0" result="BackgroundImageFix"/>
<feBlend mode="normal" in="SourceGraphic" in2="BackgroundImageFix" result="shape"/>
<feGaussianBlur stdDeviation="150" result="effect1_foregroundBlur_234_2846"/>
</filter>
<filter id="filter1_f_234_2846" x="698.5" y="487" width="1241" height="887" filterUnits="userSpaceOnUse" color-interpolation-filters="sRGB">
<feFlood flood-opacity="0" result="BackgroundImageFix"/>
<feBlend mode="normal" in="SourceGraphic" in2="BackgroundImageFix" result="shape"/>
<feGaussianBlur stdDeviation="150" result="effect1_foregroundBlur_234_2846"/>
</filter>
<clipPath id="clip0_234_2846">
<rect width="1728" height="1715" fill="white"/>
</clipPath>
</defs>
</svg>
