<svg width="68" height="68" viewBox="0 0 68 68" fill="none" xmlns="http://www.w3.org/2000/svg">
<rect width="68" height="68" rx="12" fill="#9FC2F6" fill-opacity="0.4"/>
<path d="M50.0099 27.3295C47.2113 29.0589 45.4827 32.0236 45.4827 35.3177C45.4827 39.0236 47.7052 42.4001 51.08 43.8001C50.4215 45.9413 49.4338 47.9177 48.199 49.7295C46.3882 52.2825 44.4949 54.9178 41.6963 54.9178C38.8976 54.9178 38.0745 53.2707 34.7819 53.2707C31.5717 53.2707 30.4193 55.0001 27.7853 55.0001C25.1513 55.0001 23.3404 52.6119 21.2825 49.6472C18.5662 45.5295 17.0022 40.753 16.9199 35.7295C16.9199 27.5765 22.188 23.2118 27.456 23.2118C30.2547 23.2118 32.5595 25.0236 34.2881 25.0236C35.9343 25.0236 38.5684 23.1294 41.6963 23.1294C44.9888 23.0471 48.1167 24.6118 50.0099 27.3295ZM40.2146 19.6706C41.614 18.0235 42.3548 15.9647 42.4371 13.8235C42.4371 13.5765 42.4371 13.2471 42.3548 13C39.9677 13.2471 37.7452 14.4 36.1813 16.2118C34.7819 17.7765 33.9588 19.753 33.8765 21.8941C33.8765 22.1412 33.8765 22.3883 33.9588 22.6353C34.1234 22.6353 34.3704 22.7177 34.535 22.7177C36.7575 22.553 38.8153 21.4 40.2146 19.6706Z" fill="#0F68EA"/>
</svg>
