<svg width="68" height="68" viewBox="0 0 68 68" fill="none" xmlns="http://www.w3.org/2000/svg">
<rect width="68" height="68" rx="12" fill="#9FC2F6" fill-opacity="0.4"/>
<path d="M54.8617 47.9861C54.1847 47.168 53.0992 46.9992 51.676 46.9992H36.9069C36.2434 46.9992 36.1122 46.7192 36.1122 46.2671C36.1122 45.7657 36.6829 45.6312 36.82 45.6036H51.1161C51.7161 45.6036 52.2961 45.149 52.4365 44.569L54.8065 34.8115C54.8825 34.4906 54.8182 34.1664 54.626 33.9224C54.4338 33.6775 54.1338 33.5388 53.8037 33.5388H34.4659L34.089 32.0044C33.9477 31.4245 33.3669 30.9707 32.7702 30.9707H29.0138C28.7364 30.9707 28.5107 31.1955 28.5107 31.473C28.5107 31.7504 28.7364 31.976 29.0138 31.976H32.7702C32.9065 31.976 33.0794 32.1106 33.1112 32.2426L36.1723 44.7596C35.6584 44.9819 35.1068 45.4398 35.1068 46.2671C35.1068 47.3535 35.7821 48.0029 36.9077 48.0029H51.6785C53.0432 48.0029 53.7193 48.1775 54.087 48.6246C54.1847 48.7458 54.331 48.8085 54.4764 48.8085C54.5892 48.8085 54.7029 48.7717 54.7948 48.694C55.0071 48.5176 55.0388 48.2009 54.8617 47.9861ZM47.8761 38.1066L47.4976 41.0391H41.0586L40.6566 38.1066H47.8761ZM40.5204 37.1021L40.1736 34.5558L48.3341 34.5692L48.0065 37.1038H40.5204V37.1021ZM52.2577 41.0399H48.5121L48.8907 38.1075H52.9672L52.2577 41.0399ZM47.3672 42.0444L47.0388 44.5991H41.5425L41.194 42.0444H47.3672ZM40.0416 41.0399H36.2985L35.5815 38.1075H39.6413L40.0416 41.0399ZM40.1778 42.0444L40.5288 44.5991H37.1701L36.5434 42.0444H40.1778ZM51.1161 44.5991H48.055L48.3834 42.0444H52.0128L51.4571 44.3325C51.427 44.4662 51.2523 44.5991 51.1161 44.5991ZM53.8271 34.5759L53.212 37.1021H49.021L49.3461 34.5692L53.8271 34.5759ZM39.1566 34.555L39.5042 37.1013H35.3358L34.7107 34.5466L39.1566 34.555Z" fill="#0F68EA"/>
<path d="M37.1617 48.4258C35.8982 48.4258 34.8711 49.4512 34.8711 50.7114C34.8711 51.9724 35.8982 53.0003 37.1617 53.0003C38.4228 53.0003 39.4507 51.9724 39.4507 50.7114C39.4507 49.4512 38.4228 48.4258 37.1617 48.4258ZM37.1617 51.5245C36.7121 51.5245 36.3478 51.161 36.3478 50.7114C36.3478 50.2643 36.7121 49.8991 37.1617 49.8991C37.6105 49.8991 37.9757 50.2643 37.9757 50.7114C37.9757 51.161 37.6105 51.5245 37.1617 51.5245Z" fill="#0F68EA"/>
<path d="M51.4745 48.4258C50.2118 48.4258 49.1855 49.4512 49.1855 50.7114C49.1855 51.9724 50.2118 53.0003 51.4745 53.0003C52.7381 53.0003 53.7651 51.9724 53.7651 50.7114C53.7651 49.4512 52.7381 48.4258 51.4745 48.4258ZM51.4745 51.5245C51.0266 51.5245 50.663 51.161 50.663 50.7114C50.663 50.2643 51.0266 49.8991 51.4745 49.8991C51.9241 49.8991 52.2885 50.2643 52.2885 50.7114C52.2885 51.161 51.9241 51.5245 51.4745 51.5245Z" fill="#0F68EA"/>
<path d="M31.6516 38.8398C32.2525 38.2548 32.6511 37.6489 32.9628 37.0522L32.036 33.2607H29.0142C28.7284 33.2607 28.4618 33.1872 28.2236 33.0693C28.2855 33.2139 28.3665 33.3643 28.4752 33.5223C30.3371 36.1814 29.2123 41.2282 31.6516 38.8398Z" fill="#0F68EA"/>
<path d="M33.8381 46.4908C31.8902 47.0223 29.8085 47.1811 27.6883 46.8794C26.5593 45.5172 25.7228 44.3966 28.1638 42.6784C31.1163 40.6 28.3619 39.2579 26.1072 38.932C23.855 38.6128 22.7511 33.7925 21.4867 31.527C20.2231 29.2614 19.1835 33.0162 18.296 34.2847C17.6826 35.1656 15.8215 34.507 14.731 34.0165C14.5137 32.5465 14.5078 31.0189 14.7452 29.4737C15.8207 22.4857 21.5226 17.3462 28.2574 16.6417C27.9332 18.212 27.7067 20.8076 29.4499 21.7018C32.0147 23.0163 30.8506 22.6704 27.2061 23.3456C23.5634 24.02 25.1595 27.0285 28.1454 28.6363C28.8524 29.0174 29.1424 29.3575 29.2051 29.6876H32.771C33.9551 29.6876 35.0591 30.5526 35.339 31.7016L35.4761 32.2574H37.5528C38.6918 30.8618 38.9526 27.6402 35.7878 28.4567C31.9461 29.4503 35.7418 24.2648 37.8185 24.2456C39.5701 24.2281 40.6574 23.125 41.2657 21.6876C43.7812 24.5281 45.2185 28.2787 45.094 32.2574H46.6359C46.8715 23.9222 40.8588 16.4955 32.3974 15.1968C23.2308 13.7887 14.629 20.0889 13.2192 29.2397C11.8102 38.3905 18.1205 46.9788 27.2847 48.3861C29.699 48.7572 32.0682 48.5792 34.2844 47.97C34.0228 47.5538 33.8707 47.0524 33.8381 46.4908Z" fill="#0F68EA"/>
<path d="M20.5478 26.6269C21.6985 25.6533 22.6337 25.568 23.1476 23.727C23.6616 21.8893 20.8963 22.8504 19.6862 23.7362C18.6207 24.5184 18.2864 26.3561 18.746 27.3481C19.2115 28.3392 19.3996 27.6013 20.5478 26.6269Z" fill="#0F68EA"/>
</svg>
