<svg width="68" height="68" viewBox="0 0 68 68" fill="none" xmlns="http://www.w3.org/2000/svg">
<rect width="68" height="68" rx="12" fill="#9FC2F6" fill-opacity="0.4"/>
<path d="M12.4856 48.2121C13.5271 48.2121 14.3922 48.697 14.8038 49.2197V48.3409H16.3912V54.8636H15.2489C14.997 54.8636 14.7954 54.6818 14.7954 54.4545V53.9848C14.3922 54.5152 13.5271 55 12.4856 55C10.5034 55 9 53.4697 9 51.6061C9 49.7424 10.5034 48.2121 12.4856 48.2121ZM12.7712 49.5152C11.4861 49.5152 10.6126 50.4318 10.6126 51.6061C10.6126 52.7803 11.4777 53.697 12.7712 53.697C14.0563 53.697 14.9298 52.7803 14.9298 51.6061C14.9298 50.4318 14.0647 49.5152 12.7712 49.5152ZM18.197 48.3409H19.7929V49.2273C20.2296 48.5758 21.0527 48.2121 21.9934 48.2121C23.6733 48.2121 24.7568 49.2803 24.7568 50.9394V54.8636H23.6145C23.3625 54.8636 23.1609 54.6818 23.1609 54.4545V51.1742C23.1609 50.1439 22.5814 49.5152 21.6575 49.5152C20.5992 49.5152 19.7929 50.2576 19.7929 51.6515V54.8636H18.6506C18.3986 54.8636 18.197 54.6818 18.197 54.4545V48.3409ZM29.5023 48.2121C30.5438 48.2121 31.4089 48.697 31.8204 49.2197V45.0833H33.4079V54.8712H32.2656C32.0136 54.8712 31.812 54.6894 31.812 54.4621V53.9924C31.4089 54.5152 30.5354 55 29.4939 55C27.5117 55 26.0082 53.4697 26.0082 51.6061C26.0166 49.7424 27.5201 48.2121 29.5023 48.2121ZM29.7878 49.5152C28.5028 49.5152 27.6293 50.4318 27.6293 51.6061C27.6293 52.7803 28.4944 53.697 29.7878 53.697C31.0729 53.697 31.9464 52.7803 31.9464 51.6061C31.9464 50.4318 31.0729 49.5152 29.7878 49.5152ZM35.2137 48.3409H36.8011V49.5C37.0783 48.7576 37.8846 48.2727 38.7077 48.2727C38.9093 48.2727 39.1109 48.2879 39.3292 48.3258V49.803C39.0521 49.7273 38.8253 49.6818 38.5313 49.6818C37.6158 49.6818 36.7927 50.3712 36.7927 51.6818V54.8636H35.6504C35.3985 54.8636 35.1969 54.6818 35.1969 54.4545V48.3409H35.2137ZM43.6296 55C41.4878 55 39.8416 53.5 39.8416 51.6061C39.8416 49.7121 41.4878 48.2121 43.6296 48.2121C45.7714 48.2121 47.4176 49.7121 47.4176 51.6061C47.4176 53.5 45.7714 55 43.6296 55ZM43.6296 53.6667C44.9063 53.6667 45.7966 52.7652 45.7966 51.6061C45.7966 50.447 44.8979 49.5455 43.6296 49.5455C42.3445 49.5455 41.4458 50.447 41.4458 51.6061C41.4458 52.7652 42.3445 53.6667 43.6296 53.6667ZM49.5006 46.9167C48.9211 46.9167 48.4339 46.4848 48.4339 45.9545C48.4339 45.4318 48.9295 45 49.5006 45C50.0969 45 50.5589 45.4318 50.5589 45.9545C50.5589 46.4924 50.0969 46.9167 49.5006 46.9167ZM48.7111 48.3409H50.2985V54.8636H49.1646C48.9127 54.8636 48.7111 54.6818 48.7111 54.4545V48.3409ZM55.0944 48.2121C56.1359 48.2121 57.001 48.697 57.4126 49.2197V45.0833H59V54.8712H57.8577C57.6057 54.8712 57.4042 54.6894 57.4042 54.4621V53.9924C57.001 54.5152 56.1275 55 55.086 55C53.1038 55 51.6004 53.4697 51.6004 51.6061C51.6088 49.7424 53.1122 48.2121 55.0944 48.2121ZM55.3884 49.5152C54.1033 49.5152 53.2298 50.4318 53.2298 51.6061C53.2298 52.7803 54.0949 53.697 55.3884 53.697C56.6734 53.697 57.547 52.7803 57.547 51.6061C57.547 50.4318 56.6734 49.5152 55.3884 49.5152Z" fill="#0F68EA"/>
<path d="M45.5259 33.9255C44.3722 33.9255 43.4362 32.9952 43.4362 31.8486C43.4362 30.702 44.3722 29.7717 45.5259 29.7717C46.6796 29.7717 47.6156 30.702 47.6156 31.8486C47.6156 32.9952 46.6796 33.9255 45.5259 33.9255ZM22.5176 33.9255C21.3639 33.9255 20.428 32.9952 20.428 31.8486C20.428 30.702 21.3639 29.7717 22.5176 29.7717C23.6713 29.7717 24.6073 30.702 24.6073 31.8486C24.6073 32.9952 23.6713 33.9255 22.5176 33.9255ZM46.266 21.464L50.4454 14.303C50.6848 13.8919 50.5324 13.3727 50.1189 13.1347C49.7053 12.8967 49.1829 13.0482 48.9434 13.4592L44.7205 20.7068C41.4989 19.2357 37.8855 18.4136 34.0327 18.4136C30.1798 18.4136 26.5446 19.2357 23.323 20.6852L19.1001 13.4376C18.8607 13.0266 18.3383 12.8751 17.9247 13.1131C17.5111 13.3511 17.3587 13.8703 17.5982 14.2814L21.7558 21.4424C14.616 25.315 9.71833 32.4976 9 41H59C58.3034 32.5193 53.4275 25.3366 46.266 21.464Z" fill="#0F68EA"/>
</svg>
