<svg width="68" height="68" viewBox="0 0 68 68" fill="none" xmlns="http://www.w3.org/2000/svg">
<rect width="68" height="68" rx="12" fill="#9FC2F6" fill-opacity="0.4"/>
<mask id="mask0_236_1827" style="mask-type:luminance" maskUnits="userSpaceOnUse" x="16" y="15" width="36" height="38">
<path d="M16.0088 15H51.9918V53H16.0088V15Z" fill="white"/>
</mask>
<g mask="url(#mask0_236_1827)">
<path d="M38.6578 20.0184C46.0527 20.2708 51.9696 26.3403 51.9696 33.7904C51.9696 41.2414 46.0527 47.3109 38.6578 47.5624V49.0474C38.6578 51.2301 36.9379 52.9999 34.8157 52.9999H19.8743C17.7521 52.9999 16.0322 51.2301 16.0322 49.0474V18.9515C16.0322 16.7689 17.7521 14.999 19.8743 14.999H34.8157C36.9379 14.999 38.6578 16.7689 38.6578 18.9515V20.0184ZM27.5585 50.8041C28.9733 50.8041 30.1198 49.6242 30.1198 48.169C30.1198 46.7139 28.9733 45.534 27.5585 45.534C26.1436 45.534 24.9971 46.7139 24.9971 48.169C24.9971 49.6242 26.1436 50.8041 27.5585 50.8041ZM38.18 46.3186C45.1033 46.3186 50.7161 40.7093 50.7161 33.7904C50.7161 26.8724 45.1033 21.2631 38.18 21.2631C31.2559 21.2631 25.6431 26.8724 25.6431 33.7904C25.6431 40.7093 31.2559 46.3186 38.18 46.3186ZM24.3326 18.7403C23.9881 18.7403 23.7085 19.019 23.7085 19.3635C23.7085 19.708 23.9881 19.9868 24.3326 19.9868H30.3574C30.7019 19.9868 30.9815 19.708 30.9815 19.3635C30.9815 19.019 30.7019 18.7403 30.3574 18.7403H24.3326ZM34.4905 29.1971L30.6712 33.9657L34.4905 38.9973H31.9694L28.1502 33.992L31.9694 29.1971H34.4905ZM40.9194 29.1971L37.9916 38.9973H35.8527L38.7805 29.1971H40.9194ZM42.0651 38.9973L45.8844 34.2287L42.0651 29.1971H44.5853L48.4045 34.2024L44.5853 38.9973H42.0651Z" fill="#0F68EA"/>
</g>
</svg>
