<svg width="73" height="66" viewBox="0 0 73 66" fill="none" xmlns="http://www.w3.org/2000/svg">
<path d="M68.1629 64.0319H42.3711L55.267 42.0996L68.1629 64.0319Z" fill="white"/>
<path d="M68.1629 64.0314H42.3711L55.267 42.0986L68.1629 64.0314Z" stroke="white" stroke-width="3.68454" stroke-linecap="round" stroke-linejoin="round"/>
<path d="M63.4366 4.10026L70.8358 21.5143C71.5815 23.2693 70.7656 25.2978 69.0128 26.0466L51.6202 33.4766C49.8673 34.2254 47.8431 33.4102 47.0974 31.6552L39.6982 14.2411C38.9525 12.4861 39.7685 10.4577 41.5213 9.70889L58.9139 2.27889C60.6667 1.5301 62.6909 2.34527 63.4366 4.10026Z" fill="white"/>
<path d="M63.4399 4.09945L70.8373 21.5123C71.5825 23.2664 70.7661 25.2952 69.0137 26.0439L51.6182 33.4764C49.8658 34.2251 47.8413 33.4102 47.0961 31.656L39.6986 14.2432C38.9534 12.4891 39.7698 10.4603 41.5222 9.71158L58.9177 2.2791C60.6701 1.53036 62.6946 2.34531 63.4399 4.09945Z" stroke="white" stroke-width="3.68454" stroke-miterlimit="10"/>
<path d="M63.4399 4.09945L70.8373 21.5123C71.5825 23.2664 70.7661 25.2952 69.0137 26.0439L51.6182 33.4764C49.8658 34.2251 47.8413 33.4102 47.0961 31.656L39.6986 14.2432C38.9534 12.4891 39.7698 10.4603 41.5222 9.71158L58.9177 2.2791C60.6701 1.53036 62.6946 2.34531 63.4399 4.09945Z" stroke="white" stroke-width="3.68454" stroke-miterlimit="10"/>
<path d="M24.1862 64.0314H5.28915C3.3847 64.0314 1.8418 62.4852 1.8418 60.5768V49.6545C1.8418 47.7483 3.3847 46.2021 5.28915 46.2021H24.1862C26.0907 46.2021 27.6336 47.7483 27.6336 49.6545V60.5768C27.6336 62.4852 26.0907 64.0314 24.1862 64.0314Z" fill="white"/>
<path d="M24.1867 64.0315H5.28869C3.38493 64.0315 1.8418 62.4851 1.8418 60.5774V49.6553C1.8418 47.7476 3.38493 46.2012 5.28869 46.2012H24.1867C26.0905 46.2012 27.6336 47.7476 27.6336 49.6553V60.5774C27.6336 62.4851 26.0905 64.0315 24.1867 64.0315Z" stroke="white" stroke-width="3.68454" stroke-miterlimit="10"/>
<path d="M27.6336 30.2717C27.6336 23.134 21.8604 17.3486 14.7377 17.3486C7.61501 17.3486 1.8418 23.134 1.8418 30.2717C1.8418 37.4094 7.61501 43.1948 14.7377 43.1948C21.8604 43.1948 27.6336 37.4094 27.6336 30.2717Z" fill="#FF8000"/>
<path d="M27.6336 30.2717C27.6336 23.1345 21.8599 17.3486 14.7377 17.3486C7.61547 17.3486 1.8418 23.1345 1.8418 30.2717C1.8418 37.4089 7.61547 43.1948 14.7377 43.1948C21.8599 43.1948 27.6336 37.4089 27.6336 30.2717Z" stroke="#FF8000" stroke-width="3.68454" stroke-miterlimit="10"/>
</svg>
