<svg width="68" height="68" viewBox="0 0 68 68" fill="none" xmlns="http://www.w3.org/2000/svg">
<rect width="68" height="68" rx="12" fill="#9FC2F6" fill-opacity="0.4"/>
<mask id="mask0_229_4375" style="mask-type:luminance" maskUnits="userSpaceOnUse" x="13" y="15" width="42" height="38">
<path d="M13.0957 53H54.9051V14.9999H13.0957V53Z" fill="white"/>
</mask>
<g mask="url(#mask0_229_4375)">
<path d="M27.1379 52.9166C25.8762 53.001 24.6356 52.7745 23.5481 52.1463C22.0981 51.3088 21.1324 49.8784 20.6137 48.2323C20.0957 46.5854 19.9754 44.6877 20.1652 42.6158C20.184 42.4057 20.2207 42.1869 20.2465 41.9737C20.0488 41.8885 19.8402 41.8112 19.6488 41.7229C17.7613 40.8502 16.1801 39.7986 15.0145 38.526C13.8488 37.2533 13.0957 35.701 13.0957 34.0252C13.0957 32.3494 13.8488 30.7971 15.0145 29.5236C16.1801 28.251 17.7613 27.1994 19.6488 26.3275C19.8402 26.2393 20.0488 26.1611 20.2465 26.0768C20.2207 25.8635 20.184 25.6447 20.1652 25.4346C19.9754 23.3627 20.0957 21.465 20.6137 19.8181C21.1324 18.1721 22.0981 16.7416 23.5481 15.9041C24.9981 15.0658 26.7168 14.9431 28.4012 15.3174C30.0848 15.6908 31.7856 16.5369 33.484 17.7369C33.6559 17.8588 33.8286 17.9994 34.0004 18.1283C34.1723 17.9994 34.345 17.8588 34.5168 17.7369C36.2153 16.5369 37.9161 15.6908 39.5997 15.3174C41.284 14.9431 43.0028 15.0658 44.4528 15.9041C45.9028 16.7416 46.8684 18.1721 47.3872 19.8181C47.9051 21.465 48.0254 23.3627 47.8356 25.4346C47.8169 25.6447 47.7801 25.8635 47.7544 26.0768C47.952 26.1611 48.1606 26.2393 48.352 26.3275C50.2395 27.1994 51.8208 28.251 52.9864 29.5236C54.152 30.7971 54.9051 32.3494 54.9051 34.0252C54.9051 35.701 54.152 37.2533 52.9864 38.526C51.8208 39.7986 50.2395 40.8502 48.352 41.7229C48.1606 41.8112 47.952 41.8885 47.7544 41.9737C47.7801 42.1869 47.8169 42.4057 47.8356 42.6158C48.0254 44.6877 47.9051 46.5854 47.3872 48.2323C46.8684 49.8784 45.9028 51.3088 44.4528 52.1463C43.0028 52.9838 41.284 53.1065 39.5997 52.733C37.9161 52.3596 36.2153 51.5135 34.5168 50.3135C34.345 50.1916 34.1723 50.051 34.0004 49.9221C33.8286 50.051 33.6559 50.1916 33.484 50.3135C31.7856 51.5135 30.0848 52.3596 28.4012 52.733C27.9801 52.8268 27.559 52.8893 27.1379 52.9166ZM26.9426 49.9393C27.1973 49.9205 27.4676 49.8784 27.7567 49.8143C28.8848 49.5635 30.2364 48.9299 31.6614 47.9369C30.4746 46.8096 29.3059 45.5276 28.191 44.0924C26.3942 43.844 24.7012 43.4744 23.134 43.0096C22.9879 44.7408 23.1129 46.2299 23.4606 47.333C23.816 48.4619 24.3481 49.1565 25.041 49.5573C25.5606 49.8573 26.1793 49.9971 26.9426 49.9393ZM41.0582 49.9393C41.8215 49.9971 42.4403 49.8573 42.9598 49.5573C43.6528 49.1565 44.1848 48.4619 44.5403 47.333C44.8879 46.2299 45.0129 44.7408 44.8668 43.0096C43.2997 43.4744 41.6067 43.844 39.8098 44.0924C38.695 45.5276 37.5262 46.8096 36.3395 47.9369C37.7645 48.9299 39.1161 49.5635 40.2442 49.8143C40.5332 49.8784 40.8036 49.9205 41.0582 49.9393ZM34.0004 46.0424C34.5254 45.5573 35.0489 45.0166 35.5723 44.4518C35.052 44.4705 34.5309 44.4869 34.0004 44.4869C33.47 44.4869 32.9489 44.4705 32.4285 44.4518C32.952 45.0166 33.4754 45.5573 34.0004 46.0424ZM34.0004 41.4979C35.4411 41.4979 36.8364 41.4127 38.1793 41.2697C38.9747 40.1776 39.7457 39.0096 40.4661 37.7611C41.1864 36.5127 41.8114 35.2611 42.359 34.0252C41.8114 32.7893 41.1864 31.5369 40.4661 30.2885C39.7457 29.04 38.9747 27.8728 38.1793 26.7799C36.8364 26.6369 35.4411 26.5525 34.0004 26.5525C32.5598 26.5525 31.1645 26.6369 29.8215 26.7799C29.0262 27.8728 28.2551 29.04 27.5348 30.2885C26.8145 31.5369 26.1895 32.7893 25.6418 34.0252C26.1895 35.2611 26.8145 36.5127 27.5348 37.7611C28.2551 39.0096 29.0262 40.1776 29.8215 41.2697C31.1645 41.4127 32.5598 41.4979 34.0004 41.4979ZM25.7645 40.6018C25.4879 40.1596 25.2129 39.7158 24.9481 39.2557C24.6824 38.7955 24.4371 38.3361 24.1926 37.8752C23.9653 38.6104 23.7613 39.3354 23.6035 40.0322C24.2856 40.2447 25.0145 40.4307 25.7645 40.6018ZM42.2364 40.6018C42.9864 40.4307 43.7153 40.2447 44.3973 40.0322C44.2395 39.3354 44.0356 38.6104 43.8083 37.8752C43.5637 38.3361 43.3184 38.7955 43.0528 39.2557C42.7879 39.7158 42.5129 40.1596 42.2364 40.6018ZM20.7918 38.9526C21.1738 37.3604 21.7004 35.7088 22.384 34.0252C21.7004 32.3416 21.1738 30.69 20.7918 29.0979C19.2215 29.8369 17.9965 30.6916 17.2168 31.5439C16.4176 32.4166 16.0816 33.2244 16.0816 34.0252C16.0816 34.826 16.4176 35.633 17.2168 36.5065C17.9965 37.3588 19.2215 38.2135 20.7918 38.9526ZM47.209 38.9526C48.7794 38.2135 50.0044 37.3588 50.784 36.5065C51.5833 35.633 51.9192 34.826 51.9192 34.0252C51.9192 33.2244 51.5833 32.4166 50.784 31.5439C50.0044 30.6916 48.7794 29.8369 47.209 29.0979C46.827 30.69 46.3004 32.3416 45.6169 34.0252C46.3004 35.7088 46.827 37.3604 47.209 38.9526ZM34.0004 38.5088C31.5442 38.5088 29.5207 36.4838 29.5207 34.0252C29.5207 31.5666 31.5442 29.5416 34.0004 29.5416C36.4567 29.5416 38.4801 31.5666 38.4801 34.0252C38.4801 36.4838 36.4567 38.5088 34.0004 38.5088ZM34.0004 35.5197C34.8426 35.5197 35.4934 34.8682 35.4934 34.0252C35.4934 33.1822 34.8426 32.5307 34.0004 32.5307C33.1582 32.5307 32.5075 33.1822 32.5075 34.0252C32.5075 34.8682 33.1582 35.5197 34.0004 35.5197ZM24.1926 30.1752C24.4371 29.7143 24.6824 29.2541 24.9481 28.7939C25.2129 28.3338 25.4879 27.8908 25.7645 27.4486C25.0145 27.6197 24.2856 27.8057 23.6035 28.0182C23.7613 28.7143 23.9653 29.44 24.1926 30.1752ZM43.8083 30.1752C44.0356 29.44 44.2395 28.7143 44.3973 28.0182C43.7153 27.8057 42.9864 27.6197 42.2364 27.4486C42.5129 27.8908 42.7879 28.3338 43.0528 28.7939C43.3184 29.2541 43.5637 29.7143 43.8083 30.1752ZM23.134 25.04C24.7012 24.5752 26.3942 24.2064 28.191 23.9572C29.3059 22.5228 30.4746 21.24 31.6614 20.1135C30.2364 19.1205 28.8848 18.4869 27.7567 18.2361C26.6012 17.9799 25.734 18.0931 25.041 18.4931C24.3481 18.8931 23.816 19.5885 23.4606 20.7174C23.1129 21.8205 22.9879 23.3096 23.134 25.04ZM44.8668 25.04C45.0129 23.3096 44.8879 21.8205 44.5403 20.7174C44.1848 19.5885 43.6528 18.8931 42.9598 18.4931C42.2668 18.0931 41.3997 17.9799 40.2442 18.2361C39.1161 18.4869 37.7645 19.1205 36.3395 20.1135C37.5262 21.24 38.695 22.5228 39.8098 23.9572C41.6067 24.2064 43.2997 24.5752 44.8668 25.04ZM32.4285 23.5986C32.9489 23.5799 33.47 23.5635 34.0004 23.5635C34.5309 23.5635 35.052 23.5799 35.5723 23.5986C35.0489 23.033 34.5254 22.4932 34.0004 22.0072C33.4754 22.4932 32.952 23.033 32.4285 23.5986Z" fill="#0F68EA"/>
</g>
</svg>
